<svg xmlns="http://www.w3.org/2000/svg" xmlns:xlink="http://www.w3.org/1999/xlink" width="59.285" height="40.252" viewBox="0 0 59.285 40.252">
  <defs>
    <clipPath id="clip-path">
      <rect id="Rectangle_358" data-name="Rectangle 358" width="59.285" height="40.252" fill="#fff"/>
    </clipPath>
  </defs>
  <g id="Group_248" data-name="Group 248" transform="translate(0 0)">
    <g id="Group_247" data-name="Group 247" transform="translate(0 0)" clip-path="url(#clip-path)">
      <path id="Path_359" data-name="Path 359" d="M45.221,43.244c-8.2,0-15.506-3.733-17.778-9.077a.76.76,0,1,1,1.4-.6c2.041,4.8,8.777,8.152,16.379,8.152a23.106,23.106,0,0,0,10.272-2.272.762.762,0,0,1,.526-.057L61.191,40.7l-1.078-4.266a.759.759,0,0,1,.147-.664,8.1,8.1,0,0,0,1.953-5.152c0-4.961-5.114-9.359-12.437-10.7a.76.76,0,1,1,.273-1.5c8.057,1.472,13.685,6.485,13.685,12.193a9.607,9.607,0,0,1-2.055,5.8l1.3,5.142a.761.761,0,0,1-.924.924l-6.138-1.551a24.748,24.748,0,0,1-10.7,2.307" transform="translate(-4.448 -2.992)" fill="#fff"/>
      <path id="Path_360" data-name="Path 360" d="M23.019,31.272a30.805,30.805,0,0,1-13.389-2.9L1.865,30.331a.76.76,0,0,1-.924-.924l1.652-6.536A11.876,11.876,0,0,1,0,15.636C0,7.014,10.326,0,23.019,0s23.02,7.014,23.02,15.636S35.712,31.272,23.019,31.272M9.715,26.8a.755.755,0,0,1,.34.08,29.174,29.174,0,0,0,12.964,2.869c11.854,0,21.5-6.332,21.5-14.115S34.873,1.522,23.019,1.522s-21.5,6.332-21.5,14.114a10.478,10.478,0,0,0,2.493,6.581.759.759,0,0,1,.146.664L2.729,28.543l6.8-1.718a.735.735,0,0,1,.186-.023" transform="translate(0 0)" fill="#fff"/>
      <path id="Path_361" data-name="Path 361" d="M26.8,21.5a3.508,3.508,0,1,1,3.508-3.508A3.512,3.512,0,0,1,26.8,21.5m0-5.5a1.987,1.987,0,1,0,1.987,1.987A1.989,1.989,0,0,0,26.8,16" transform="translate(-3.785 -2.353)" fill="#fff"/>
      <path id="Path_362" data-name="Path 362" d="M14.357,21.5a3.508,3.508,0,1,1,3.508-3.508A3.512,3.512,0,0,1,14.357,21.5m0-5.5a1.987,1.987,0,1,0,1.987,1.987A1.989,1.989,0,0,0,14.357,16" transform="translate(-1.763 -2.353)" fill="#fff"/>
      <path id="Path_363" data-name="Path 363" d="M39.25,21.5a3.508,3.508,0,1,1,3.508-3.508A3.512,3.512,0,0,1,39.25,21.5m0-5.5a1.987,1.987,0,1,0,1.987,1.987A1.989,1.989,0,0,0,39.25,16" transform="translate(-5.807 -2.353)" fill="#fff"/>
    </g>
  </g>
</svg>
