<svg xmlns="http://www.w3.org/2000/svg" xmlns:xlink="http://www.w3.org/1999/xlink" width="48.043" height="38.322" viewBox="0 0 48.043 38.322">
  <defs>
    <clipPath id="clip-path">
      <rect id="Rectangle_345" data-name="Rectangle 345" width="48.043" height="38.322" fill="#fff"/>
    </clipPath>
  </defs>
  <g id="Group_230" data-name="Group 230" transform="translate(0 0)">
    <g id="Group_229" data-name="Group 229" transform="translate(0 0)" clip-path="url(#clip-path)">
      <path id="Path_300" data-name="Path 300" d="M44,40.609H5.756A.752.752,0,0,1,5,39.856V14.121a.753.753,0,1,1,1.505,0V39.1H43.246V14.121a.753.753,0,1,1,1.505,0V39.856a.753.753,0,0,1-.753.753" transform="translate(-0.856 -2.287)" fill="#fff"/>
      <path id="Path_301" data-name="Path 301" d="M32.309,42.281H23.525a.753.753,0,0,1-.754-.753V23.9a.753.753,0,0,1,.754-.753h8.784a.753.753,0,0,1,.753.753v17.63a.752.752,0,0,1-.753.753m-8.032-1.505h7.279V24.652H24.277Z" transform="translate(-3.895 -3.96)" fill="#fff"/>
      <path id="Path_302" data-name="Path 302" d="M47.287,45.919H.758a.753.753,0,1,1,0-1.505H47.287a.753.753,0,1,1,0,1.505" transform="translate(-0.001 -7.598)" fill="#fff"/>
      <path id="Path_303" data-name="Path 303" d="M3.714,12.59A3.706,3.706,0,0,1,.628,6.833l4.32-6.5A.753.753,0,0,1,5.575,0h5.27a.752.752,0,0,1,.68,1.075l-4.464,9.4A3.724,3.724,0,0,1,3.714,12.59M5.979,1.505l-4.1,6.161a2.2,2.2,0,0,0,1.832,3.419A2.21,2.21,0,0,0,5.7,9.829L9.655,1.505Z" transform="translate(0 0)" fill="#fff"/>
      <path id="Path_304" data-name="Path 304" d="M11.95,12.59A3.909,3.909,0,0,1,8.418,7L11.541.429A.752.752,0,0,1,12.221,0h5.27a.753.753,0,0,1,.724.959L15.709,9.752A3.925,3.925,0,0,1,11.95,12.59M12.7,1.505,9.778,7.649a2.4,2.4,0,1,0,4.483,1.69l2.232-7.834Z" transform="translate(-1.375 0)" fill="#fff"/>
      <path id="Path_305" data-name="Path 305" d="M20.192,12.59h-.324a3.908,3.908,0,0,1-3.759-4.98L18.121.546A.753.753,0,0,1,18.845,0h5.27a.752.752,0,0,1,.749.824l-.782,8.227a3.892,3.892,0,0,1-3.891,3.539M19.414,1.505,17.557,8.022a2.4,2.4,0,0,0,2.311,3.062h.324a2.4,2.4,0,0,0,2.393-2.176l.7-7.4Z" transform="translate(-2.729 0)" fill="#fff"/>
      <path id="Path_306" data-name="Path 306" d="M28.344,12.59h-.435a3.908,3.908,0,0,1-3.891-4.278l.724-7.63A.753.753,0,0,1,25.491,0h5.27a.753.753,0,0,1,.749.681l.724,7.63a3.908,3.908,0,0,1-3.892,4.278M26.176,1.505l-.66,6.949a2.4,2.4,0,0,0,2.392,2.63h.435a2.4,2.4,0,0,0,2.393-2.631l-.66-6.948Z" transform="translate(-4.105 0)" fill="#fff"/>
      <path id="Path_307" data-name="Path 307" d="M36.25,12.59h-.324a3.894,3.894,0,0,1-3.892-3.539L31.253.824A.752.752,0,0,1,32,0h5.27A.754.754,0,0,1,38,.546L40.009,7.61a3.909,3.909,0,0,1-3.759,4.98M32.83,1.505l.7,7.4a2.4,2.4,0,0,0,2.393,2.176h.324a2.4,2.4,0,0,0,2.311-3.062L36.7,1.505Z" transform="translate(-5.346 0)" fill="#fff"/>
      <path id="Path_308" data-name="Path 308" d="M43.9,12.59a3.924,3.924,0,0,1-3.759-2.837L37.635.959A.753.753,0,0,1,38.36,0h5.27a.754.754,0,0,1,.68.429L47.432,7A3.909,3.909,0,0,1,43.9,12.59M39.357,1.505,41.589,9.34a2.4,2.4,0,1,0,4.483-1.69L43.153,1.505Z" transform="translate(-6.433 0)" fill="#fff"/>
      <path id="Path_309" data-name="Path 309" d="M51.849,12.59A3.724,3.724,0,0,1,48.5,10.474l-4.464-9.4A.753.753,0,0,1,44.717,0h5.27a.752.752,0,0,1,.627.336l4.32,6.5a3.7,3.7,0,0,1-3.085,5.757M45.908,1.505l3.953,8.323a2.21,2.21,0,0,0,1.988,1.256,2.2,2.2,0,0,0,1.832-3.419l-4.1-6.161Z" transform="translate(-7.52 0)" fill="#fff"/>
      <path id="Path_310" data-name="Path 310" d="M16.972,32.457H10.983a.753.753,0,0,1-.753-.753V25.716a.753.753,0,0,1,.753-.754h5.989a.753.753,0,0,1,.753.754V31.7a.753.753,0,0,1-.753.753m-5.236-1.505h4.484V26.468H11.735Z" transform="translate(-1.75 -4.27)" fill="#fff"/>
      <path id="Path_311" data-name="Path 311" d="M45.428,32.457H39.439a.753.753,0,0,1-.754-.753V25.716a.754.754,0,0,1,.754-.754h5.989a.753.753,0,0,1,.753.754V31.7a.753.753,0,0,1-.753.753m-5.236-1.505h4.484V26.468H40.191Z" transform="translate(-6.617 -4.27)" fill="#fff"/>
    </g>
  </g>
</svg>
