<svg xmlns="http://www.w3.org/2000/svg" xmlns:xlink="http://www.w3.org/1999/xlink" width="25.608" height="46.107" viewBox="0 0 25.608 46.107">
  <defs>
    <clipPath id="clip-path">
      <rect id="Rectangle_348" data-name="Rectangle 348" width="25.608" height="46.107" fill="#fff"/>
    </clipPath>
  </defs>
  <g id="Group_236" data-name="Group 236" transform="translate(0 0)">
    <g id="Group_235" data-name="Group 235" transform="translate(0 0)" clip-path="url(#clip-path)">
      <path id="Path_338" data-name="Path 338" d="M12.124,49.378a.755.755,0,0,1-.755-.755V35.88a.755.755,0,0,1,1.511,0V48.622a.755.755,0,0,1-.755.755" transform="translate(-1.911 -5.905)" fill="#fff"/>
      <path id="Path_339" data-name="Path 339" d="M12.847,48.113a3.387,3.387,0,0,1-2.635-1.259,3.388,3.388,0,0,1-6.024-2.131V30.434a2.711,2.711,0,0,1-1.061.332A2.85,2.85,0,0,1,0,27.93V16.878a4.949,4.949,0,0,1,4.943-4.943H15.48a4.949,4.949,0,0,1,4.944,4.943V27.93a2.87,2.87,0,0,1-.077.659.755.755,0,1,1-1.47-.349,1.387,1.387,0,0,0,.036-.31V16.878a3.436,3.436,0,0,0-3.432-3.432H4.944a3.436,3.436,0,0,0-3.433,3.432V27.93a1.343,1.343,0,0,0,.438.992,1.327,1.327,0,0,0,1.034.341A1.4,1.4,0,0,0,4.189,27.84a.755.755,0,0,1,1.511,0V44.723a1.879,1.879,0,1,0,3.758,0,.756.756,0,0,1,1.512,0,1.879,1.879,0,1,0,3.758,0V37.578a.755.755,0,0,1,1.511,0v7.145a3.394,3.394,0,0,1-3.39,3.39" transform="translate(0 -2.007)" fill="#fff"/>
      <path id="Path_340" data-name="Path 340" d="M16.328,13.446H5.791a.755.755,0,1,1,0-1.511H16.328a.755.755,0,0,1,0,1.511" transform="translate(-0.847 -2.007)" fill="#fff"/>
      <path id="Path_341" data-name="Path 341" d="M5.79,30.123a.756.756,0,0,1-.755-.755V21.78a.755.755,0,1,1,1.511,0v7.588a.756.756,0,0,1-.755.755" transform="translate(-0.846 -3.535)" fill="#fff"/>
      <path id="Path_342" data-name="Path 342" d="M18.455,30.123a.756.756,0,0,1-.755-.755V21.78a.755.755,0,1,1,1.511,0v7.588a.756.756,0,0,1-.755.755" transform="translate(-2.976 -3.535)" fill="#fff"/>
      <path id="Path_343" data-name="Path 343" d="M11.409,8.586A4.293,4.293,0,1,1,15.7,4.293a4.3,4.3,0,0,1-4.293,4.292m0-7.075a2.782,2.782,0,1,0,2.783,2.783,2.785,2.785,0,0,0-2.783-2.783" transform="translate(-1.197 0)" fill="#fff"/>
      <path id="Path_344" data-name="Path 344" d="M25.483,41.421H13.4a2.037,2.037,0,0,1-2.036-2.035V33.176A2.037,2.037,0,0,1,13.4,31.141h12.08a2.037,2.037,0,0,1,2.036,2.035v6.211a2.037,2.037,0,0,1-2.036,2.035M13.4,32.652a.525.525,0,0,0-.524.524v6.211a.525.525,0,0,0,.524.524h12.08a.525.525,0,0,0,.525-.524V33.176a.525.525,0,0,0-.525-.524Z" transform="translate(-1.911 -5.236)" fill="#fff"/>
    </g>
  </g>
</svg>
