<svg xmlns="http://www.w3.org/2000/svg" xmlns:xlink="http://www.w3.org/1999/xlink" width="53.715" height="43.328" viewBox="0 0 53.715 43.328">
  <defs>
    <clipPath id="clip-path">
      <rect id="Rectangle_350" data-name="Rectangle 350" width="53.715" height="43.328" fill="#fff"/>
    </clipPath>
  </defs>
  <g id="Group_240" data-name="Group 240" transform="translate(0 0)">
    <g id="Group_239" data-name="Group 239" transform="translate(0 0)" clip-path="url(#clip-path)">
      <path id="Path_352" data-name="Path 352" d="M28.123,25.641a.775.775,0,0,1-.366-.091L9.386,15.809a.78.78,0,0,1,.008-1.383L27.765,4.941a.784.784,0,0,1,.715,0l18.371,9.485a.78.78,0,0,1,.008,1.383L28.488,25.55a.774.774,0,0,1-.365.091M11.434,15.129l16.689,8.85,16.688-8.85L28.123,6.512Z" transform="translate(-1.265 -0.685)" fill="#fff"/>
      <path id="Path_353" data-name="Path 353" d="M31.139,46.927a.78.78,0,0,1-.78-.78V27.776a.78.78,0,0,1,1.152-.685l7.338,3.976,10.3-5.459a.78.78,0,0,1,1.145.689v10.11a.782.782,0,0,1-.415.69L31.5,46.837a.783.783,0,0,1-.365.09m.78-17.841V44.851L48.73,35.937V27.593l-9.52,5.048a.783.783,0,0,1-.737,0Z" transform="translate(-4.282 -3.599)" fill="#fff"/>
      <path id="Path_354" data-name="Path 354" d="M38.845,31.374a.781.781,0,0,1-.371-.094L30.768,27.1a.78.78,0,0,1,.006-1.375l18.371-9.741a.781.781,0,0,1,.737,0l7.706,4.175a.78.78,0,0,1-.006,1.375L39.211,31.283a.775.775,0,0,1-.366.091m-6.055-4.948,6.059,3.283,16.716-8.863-6.059-3.283Z" transform="translate(-4.282 -2.243)" fill="#fff"/>
      <path id="Path_355" data-name="Path 355" d="M28.122,46.928a.784.784,0,0,1-.365-.091L9.385,37.1a.781.781,0,0,1-.414-.69V26.295a.78.78,0,0,1,1.145-.689l10.3,5.459,7.338-3.976a.78.78,0,0,1,1.151.686V46.147a.782.782,0,0,1-.78.781M10.531,35.937l16.811,8.914V29.086l-6.554,3.551a.782.782,0,0,1-.738,0l-9.52-5.048Z" transform="translate(-1.265 -3.599)" fill="#fff"/>
      <path id="Path_356" data-name="Path 356" d="M19.151,31.373a.777.777,0,0,1-.366-.091L.414,21.541a.781.781,0,0,1-.006-1.375L8.114,15.99a.778.778,0,0,1,.737,0l18.371,9.741a.78.78,0,0,1,.036,1.358l-7.736,4.193a.779.779,0,0,1-.371.094M2.431,20.844l16.716,8.864,6.06-3.284L8.49,17.561Z" transform="translate(0 -2.242)" fill="#fff"/>
      <path id="Path_357" data-name="Path 357" d="M8.487,15.214a.782.782,0,0,1-.367-.092l-7.706-4.1A.781.781,0,0,1,.421,9.645L18.792.089a.778.778,0,0,1,.731.006l7.706,4.168a.78.78,0,0,1-.013,1.379L8.845,15.126a.771.771,0,0,1-.357.088M2.457,10.344l6.036,3.208,16.7-8.619L19.145,1.664Z" transform="translate(0 0)" fill="#fff"/>
      <path id="Path_358" data-name="Path 358" d="M49.511,15.214a.776.776,0,0,1-.358-.087L30.782,5.643a.78.78,0,0,1-.014-1.379L38.475.1a.776.776,0,0,1,.731-.006L57.577,9.646a.78.78,0,0,1,.006,1.381l-7.706,4.1a.778.778,0,0,1-.366.091m-16.7-10.28,16.7,8.619,6.036-3.208L38.853,1.664Z" transform="translate(-4.282 0)" fill="#fff"/>
    </g>
  </g>
</svg>
