<svg xmlns="http://www.w3.org/2000/svg" xmlns:xlink="http://www.w3.org/1999/xlink" width="48.775" height="45.729" viewBox="0 0 48.775 45.729">
  <defs>
    <clipPath id="clip-path">
      <rect id="Rectangle_346" data-name="Rectangle 346" width="48.775" height="45.729" fill="#fff"/>
    </clipPath>
  </defs>
  <g id="Group_232" data-name="Group 232" transform="translate(0 0)">
    <g id="Group_231" data-name="Group 231" transform="translate(0 0)" clip-path="url(#clip-path)">
      <path id="Path_312" data-name="Path 312" d="M45.748,33.408H44.591a.795.795,0,1,1,0-1.589h1.158a6.9,6.9,0,0,0,0-13.808H44.591a.795.795,0,1,1,0-1.589h1.158a8.494,8.494,0,0,1,0,16.987" transform="translate(-5.467 -2.05)" fill="#fff"/>
      <path id="Path_313" data-name="Path 313" d="M47.077,37.737a.793.793,0,0,1-.562-.233l-2.487-2.487a.8.8,0,0,1,0-1.124l2.487-2.486a.795.795,0,1,1,1.124,1.124l-1.924,1.924,1.924,1.925a.795.795,0,0,1-.562,1.357" transform="translate(-5.467 -3.891)" fill="#fff"/>
      <path id="Path_314" data-name="Path 314" d="M9.651,33.408H8.493a8.494,8.494,0,0,1,0-16.987H9.651a.795.795,0,1,1,0,1.589H8.493a6.9,6.9,0,0,0,0,13.808H9.651a.795.795,0,0,1,0,1.589" transform="translate(0 -2.05)" fill="#fff"/>
      <path id="Path_315" data-name="Path 315" d="M8.074,20.142a.795.795,0,0,1-.562-1.357L9.436,16.86,7.512,14.935a.795.795,0,1,1,1.124-1.124L11.123,16.3a.8.8,0,0,1,0,1.124L8.635,19.909a.793.793,0,0,1-.562.233" transform="translate(-0.909 -1.695)" fill="#fff"/>
      <path id="Path_316" data-name="Path 316" d="M27.754,47.246a.8.8,0,0,1-.8-.795V33.841a.795.795,0,0,1,1.589,0V46.452a.794.794,0,0,1-.794.795" transform="translate(-3.365 -4.125)" fill="#fff"/>
      <path id="Path_317" data-name="Path 317" d="M29.026,47.131a3.4,3.4,0,0,1-2.607-1.219,3.4,3.4,0,0,1-6.01-2.184V29.664a2.72,2.72,0,0,1-1,.3,2.869,2.869,0,0,1-3.145-2.854V16.168a4.945,4.945,0,0,1,4.939-4.94h10.43a4.945,4.945,0,0,1,4.939,4.94V27.107a2.869,2.869,0,0,1-3.146,2.854,2.7,2.7,0,0,1-1-.3V43.728a3.407,3.407,0,0,1-3.4,3.4m-2.607-4.2a.794.794,0,0,1,.794.795,1.813,1.813,0,0,0,3.626,0v-16.7a.794.794,0,0,1,.793-.795h0a.794.794,0,0,1,.795.792,1.339,1.339,0,0,0,1.15,1.357,1.28,1.28,0,0,0,1.406-1.272V16.168a3.354,3.354,0,0,0-3.35-3.351H21.2a3.354,3.354,0,0,0-3.349,3.351V27.107a1.279,1.279,0,0,0,1.406,1.272,1.338,1.338,0,0,0,1.149-1.362.795.795,0,0,1,1.589,0V43.728a1.812,1.812,0,0,0,3.625,0,.8.8,0,0,1,.8-.795" transform="translate(-2.03 -1.401)" fill="#fff"/>
      <path id="Path_318" data-name="Path 318" d="M32.223,12.818H21.795a.795.795,0,0,1,0-1.589H32.223a.795.795,0,1,1,0,1.589" transform="translate(-2.621 -1.401)" fill="#fff"/>
      <path id="Path_319" data-name="Path 319" d="M21.795,28.88A.8.8,0,0,1,21,28.085V20.575a.795.795,0,1,1,1.589,0v7.511a.8.8,0,0,1-.795.795" transform="translate(-2.621 -2.469)" fill="#fff"/>
      <path id="Path_320" data-name="Path 320" d="M33.71,28.88a.8.8,0,0,1-.795-.795V20.575a.795.795,0,1,1,1.589,0v7.511a.8.8,0,0,1-.795.795" transform="translate(-4.109 -2.469)" fill="#fff"/>
      <path id="Path_321" data-name="Path 321" d="M27.254,8.592a4.3,4.3,0,1,1,4.3-4.3,4.3,4.3,0,0,1-4.3,4.3m0-7A2.707,2.707,0,1,0,29.96,4.3a2.71,2.71,0,0,0-2.706-2.707" transform="translate(-2.866 0)" fill="#fff"/>
    </g>
  </g>
</svg>
