<svg xmlns="http://www.w3.org/2000/svg" xmlns:xlink="http://www.w3.org/1999/xlink" width="48.572" height="48.776" viewBox="0 0 48.572 48.776">
  <defs>
    <clipPath id="clip-path">
      <rect id="Rectangle_349" data-name="Rectangle 349" width="48.572" height="48.776" fill="#fff"/>
    </clipPath>
  </defs>
  <g id="Group_238" data-name="Group 238" transform="translate(0 0)">
    <g id="Group_237" data-name="Group 237" transform="translate(0 0)" clip-path="url(#clip-path)">
      <path id="Path_345" data-name="Path 345" d="M29.947,39.5A19.752,19.752,0,1,1,49.7,19.752,19.774,19.774,0,0,1,29.947,39.5m0-37.889A18.137,18.137,0,1,0,48.084,19.752,18.158,18.158,0,0,0,29.947,1.615" transform="translate(-1.127 0)" fill="#fff"/>
      <path id="Path_346" data-name="Path 346" d="M4.5,52.449H4.435A4.507,4.507,0,0,1,1.2,51.034a4.66,4.66,0,0,1,.2-6.457l11.121-11.12a.8.8,0,0,1,.64-.234.812.812,0,0,1,.591.339,21.1,21.1,0,0,0,5.084,5.083.808.808,0,0,1,.1,1.232L7.7,51.119A4.507,4.507,0,0,1,4.5,52.449m8.51-17.187L2.549,45.72a3.035,3.035,0,0,0-.177,4.2,2.926,2.926,0,0,0,4.19.056L17.142,39.4a22.619,22.619,0,0,1-4.136-4.136" transform="translate(0 -3.673)" fill="#fff"/>
      <path id="Path_347" data-name="Path 347" d="M34.038,32.778H28.32a2.974,2.974,0,0,1-2.185-.954,2.737,2.737,0,0,1-1.718.846,2.809,2.809,0,0,1-3.082-2.8V24.008a4.815,4.815,0,0,1,4.809-4.81h10.07a4.815,4.815,0,0,1,4.81,4.81v5.867a2.81,2.81,0,0,1-3.083,2.8,2.731,2.731,0,0,1-1.717-.847,2.973,2.973,0,0,1-2.186.955m-7.894-3.8a.808.808,0,0,1,.808.808,1.371,1.371,0,0,0,1.368,1.375h5.718A1.369,1.369,0,0,0,35.406,29.8a.808.808,0,0,1,.807-.808h0a.808.808,0,0,1,.808.806,1.251,1.251,0,0,0,1.073,1.268,1.193,1.193,0,0,0,1.314-1.187V24.008a3.2,3.2,0,0,0-3.194-3.195H26.144a3.2,3.2,0,0,0-3.194,3.195v5.867a1.194,1.194,0,0,0,1.314,1.187,1.25,1.25,0,0,0,1.074-1.274.808.808,0,0,1,.808-.808" transform="translate(-2.359 -2.123)" fill="#fff"/>
      <path id="Path_348" data-name="Path 348" d="M36.711,20.813H26.642a.807.807,0,1,1,0-1.614H36.711a.807.807,0,1,1,0,1.614" transform="translate(-2.857 -2.123)" fill="#fff"/>
      <path id="Path_349" data-name="Path 349" d="M26.643,31.494a.808.808,0,0,1-.808-.808V28.13a.808.808,0,0,1,1.615,0v2.557a.808.808,0,0,1-.808.808" transform="translate(-2.857 -3.021)" fill="#fff"/>
      <path id="Path_350" data-name="Path 350" d="M37.962,31.494a.808.808,0,0,1-.808-.808V28.13a.808.808,0,0,1,1.615,0v2.557a.808.808,0,0,1-.808.808" transform="translate(-4.109 -3.021)" fill="#fff"/>
      <path id="Path_351" data-name="Path 351" d="M31.882,16.909A4.188,4.188,0,1,1,36.07,12.72a4.193,4.193,0,0,1-4.188,4.188m0-6.761a2.573,2.573,0,1,0,2.573,2.573,2.576,2.576,0,0,0-2.573-2.573" transform="translate(-3.063 -0.943)" fill="#fff"/>
    </g>
  </g>
</svg>
