<svg xmlns="http://www.w3.org/2000/svg" xmlns:xlink="http://www.w3.org/1999/xlink" width="58.43" height="37.796" viewBox="0 0 58.43 37.796">
  <defs>
    <clipPath id="clip-path">
      <rect id="Rectangle_347" data-name="Rectangle 347" width="58.43" height="37.796" fill="#fff"/>
    </clipPath>
  </defs>
  <g id="Group_234" data-name="Group 234" transform="translate(0 0)">
    <g id="Group_233" data-name="Group 233" transform="translate(0 0)" clip-path="url(#clip-path)">
      <path id="Path_322" data-name="Path 322" d="M57.293,32.4H23.467a.617.617,0,1,1,0-1.234H57.293a2.927,2.927,0,0,0,2.924-2.923V4.157a2.928,2.928,0,0,0-2.924-2.924H17.685a2.927,2.927,0,0,0-2.924,2.924V16.119a.617.617,0,0,1-1.234,0V4.157A4.162,4.162,0,0,1,17.685,0H57.293A4.162,4.162,0,0,1,61.45,4.157V28.245A4.162,4.162,0,0,1,57.293,32.4" transform="translate(-3.019 0)" fill="#fff"/>
      <path id="Path_323" data-name="Path 323" d="M46,46.752h-5.05a.617.617,0,0,1-.617-.617V40.741a.617.617,0,0,1,.617-.617H46a.617.617,0,0,1,.617.617v5.394a.617.617,0,0,1-.617.617m-4.433-1.234H45.38V41.358H41.563Z" transform="translate(-9.001 -8.956)" fill="#fff"/>
      <path id="Path_324" data-name="Path 324" d="M49.418,48.3H34.766a.617.617,0,1,1,0-1.234H49.418a.617.617,0,0,1,0,1.234" transform="translate(-7.622 -10.506)" fill="#fff"/>
      <path id="Path_325" data-name="Path 325" d="M49.34,20.234a.616.616,0,0,1-.453-1.035l5.438-5.9a.617.617,0,1,1,.907.836l-5.438,5.9a.614.614,0,0,1-.454.2" transform="translate(-10.875 -2.924)" fill="#fff"/>
      <path id="Path_326" data-name="Path 326" d="M44.77,21.88a.607.607,0,0,1-.308-.083l-3.817-2.2a.617.617,0,1,1,.617-1.068l3.817,2.205a.617.617,0,0,1-.309,1.15" transform="translate(-9.003 -4.116)" fill="#fff"/>
      <path id="Path_327" data-name="Path 327" d="M29,26.241a.617.617,0,0,1-.424-1.064l6.472-6.132a.616.616,0,1,1,.847.895l-6.471,6.132a.614.614,0,0,1-.424.169" transform="translate(-6.334 -4.213)" fill="#fff"/>
      <path id="Path_328" data-name="Path 328" d="M38.511,19.723a2.266,2.266,0,1,1,2.267-2.266,2.269,2.269,0,0,1-2.267,2.266m0-3.3a1.033,1.033,0,1,0,1.033,1.033,1.034,1.034,0,0,0-1.033-1.033" transform="translate(-8.09 -3.391)" fill="#fff"/>
      <path id="Path_329" data-name="Path 329" d="M47.3,24.814a2.267,2.267,0,1,1,2.267-2.267A2.269,2.269,0,0,1,47.3,24.814m0-3.3a1.033,1.033,0,1,0,1.033,1.033A1.034,1.034,0,0,0,47.3,21.515" transform="translate(-10.053 -4.527)" fill="#fff"/>
      <path id="Path_330" data-name="Path 330" d="M57.417,13.829a2.267,2.267,0,1,1,2.267-2.267,2.269,2.269,0,0,1-2.267,2.267m0-3.3a1.033,1.033,0,1,0,1.033,1.033,1.034,1.034,0,0,0-1.033-1.033" transform="translate(-12.31 -2.075)" fill="#fff"/>
      <path id="Path_331" data-name="Path 331" d="M54.545,27.563H28.66a.617.617,0,0,1-.617-.617V9.062a.617.617,0,0,1,1.234,0V26.329H54.545a.617.617,0,0,1,0,1.234" transform="translate(-6.259 -1.885)" fill="#fff"/>
      <path id="Path_332" data-name="Path 332" d="M29.9,11.428a.612.612,0,0,1-.436-.181L28.158,9.935l-1.311,1.311a.617.617,0,0,1-.872-.872l1.747-1.747a.635.635,0,0,1,.872,0l1.747,1.747a.617.617,0,0,1-.436,1.053" transform="translate(-5.757 -1.887)" fill="#fff"/>
      <path id="Path_333" data-name="Path 333" d="M59.733,33.946a.617.617,0,0,1-.436-1.053l1.311-1.312L59.3,30.271a.617.617,0,0,1,.872-.872l1.748,1.747a.616.616,0,0,1,0,.872l-1.748,1.747a.615.615,0,0,1-.436.181" transform="translate(-13.195 -6.522)" fill="#fff"/>
      <path id="Path_334" data-name="Path 334" d="M20.448,45.265a.617.617,0,0,1-.617-.617V38.47A3.778,3.778,0,0,0,16.056,34.7H5.008A3.778,3.778,0,0,0,1.234,38.47v6.178a.617.617,0,1,1-1.234,0V38.47a5.013,5.013,0,0,1,5.008-5.007H16.056a5.014,5.014,0,0,1,5.009,5.007v6.178a.617.617,0,0,1-.617.617" transform="translate(0 -7.469)" fill="#fff"/>
      <path id="Path_335" data-name="Path 335" d="M12.316,28.714a4.326,4.326,0,1,1,4.325-4.326,4.331,4.331,0,0,1-4.325,4.326m0-7.418a3.092,3.092,0,1,0,3.092,3.092A3.1,3.1,0,0,0,12.316,21.3" transform="translate(-1.783 -4.478)" fill="#fff"/>
      <path id="Path_336" data-name="Path 336" d="M5.9,46.721a.617.617,0,0,1-.617-.617V40.6a.617.617,0,0,1,1.234,0v5.5a.617.617,0,0,1-.617.617" transform="translate(-1.18 -8.925)" fill="#fff"/>
      <path id="Path_337" data-name="Path 337" d="M20.859,46.721a.617.617,0,0,1-.617-.617V40.6a.617.617,0,0,1,1.234,0v5.5a.617.617,0,0,1-.617.617" transform="translate(-4.518 -8.925)" fill="#fff"/>
    </g>
  </g>
</svg>
